<svg xmlns="http://www.w3.org/2000/svg" width="100%" height="100%" viewBox="0 0 1440 900" fill="none">
  <rect width="1440" height="900" fill="#020617" />
  <path opacity="0.05" d="M0 0L1440 0L1440 900L0 900L0 0Z" fill="url(#paint0_radial)" />
  <g opacity="0.05">
    <path d="M0 150H1440" stroke="#64748B" stroke-width="0.5" />
    <path d="M0 300H1440" stroke="#64748B" stroke-width="0.5" />
    <path d="M0 450H1440" stroke="#64748B" stroke-width="0.5" />
    <path d="M0 600H1440" stroke="#64748B" stroke-width="0.5" />
    <path d="M0 750H1440" stroke="#64748B" stroke-width="0.5" />
    <path d="M240 0V900" stroke="#64748B" stroke-width="0.5" />
    <path d="M480 0V900" stroke="#64748B" stroke-width="0.5" />
    <path d="M720 0V900" stroke="#64748B" stroke-width="0.5" />
    <path d="M960 0V900" stroke="#64748B" stroke-width="0.5" />
    <path d="M1200 0V900" stroke="#64748B" stroke-width="0.5" />
  </g>
  <g opacity="0.1">
    <circle cx="240" cy="150" r="4" fill="#14B8A6" />
    <circle cx="480" cy="150" r="4" fill="#14B8A6" />
    <circle cx="720" cy="150" r="4" fill="#14B8A6" />
    <circle cx="960" cy="150" r="4" fill="#14B8A6" />
    <circle cx="1200" cy="150" r="4" fill="#14B8A6" />
    <circle cx="240" cy="300" r="4" fill="#14B8A6" />
    <circle cx="480" cy="300" r="4" fill="#14B8A6" />
    <circle cx="720" cy="300" r="4" fill="#14B8A6" />
    <circle cx="960" cy="300" r="4" fill="#14B8A6" />
    <circle cx="1200" cy="300" r="4" fill="#14B8A6" />
    <circle cx="240" cy="450" r="4" fill="#14B8A6" />
    <circle cx="480" cy="450" r="4" fill="#14B8A6" />
    <circle cx="720" cy="450" r="4" fill="#14B8A6" />
    <circle cx="960" cy="450" r="4" fill="#14B8A6" />
    <circle cx="1200" cy="450" r="4" fill="#14B8A6" />
    <circle cx="240" cy="600" r="4" fill="#14B8A6" />
    <circle cx="480" cy="600" r="4" fill="#14B8A6" />
    <circle cx="720" cy="600" r="4" fill="#14B8A6" />
    <circle cx="960" cy="600" r="4" fill="#14B8A6" />
    <circle cx="1200" cy="600" r="4" fill="#14B8A6" />
    <circle cx="240" cy="750" r="4" fill="#14B8A6" />
    <circle cx="480" cy="750" r="4" fill="#14B8A6" />
    <circle cx="720" cy="750" r="4" fill="#14B8A6" />
    <circle cx="960" cy="750" r="4" fill="#14B8A6" />
    <circle cx="1200" cy="750" r="4" fill="#14B8A6" />
  </g>
  <defs>
    <radialGradient id="paint0_radial" cx="0" cy="0" r="1" gradientUnits="userSpaceOnUse" gradientTransform="translate(720 450) rotate(90) scale(450 720)">
      <stop stop-color="#14B8A6" stop-opacity="0.2" />
      <stop offset="1" stop-color="#020617" stop-opacity="0" />
    </radialGradient>
  </defs>
</svg> 