<svg xmlns="http://www.w3.org/2000/svg" width="100" height="100" viewBox="0 0 100 100" fill="none">
  <rect width="100" height="100" rx="12" fill="#101827"/>
  <path d="M50 22C34.536 22 22 34.536 22 50C22 65.464 34.536 78 50 78C65.464 78 78 65.464 78 50C78 34.536 65.464 22 50 22ZM50 72C37.85 72 28 62.15 28 50C28 37.85 37.85 28 50 28C62.15 28 72 37.85 72 50C72 62.15 62.15 72 50 72Z" fill="#14B8A6"/>
  <path d="M50 32C50 30.896 49.104 30 48 30H46C44.896 30 44 30.896 44 32V48H32C30.896 48 30 48.896 30 50V52C30 53.104 30.896 54 32 54H48C49.104 54 50 53.104 50 52V32Z" fill="#E11D48"/>
  <path d="M68 48H56V32C56 30.896 55.104 30 54 30H52C50.896 30 50 30.896 50 32V52C50 53.104 50.896 54 52 54H68C69.104 54 70 53.104 70 52V50C70 48.896 69.104 48 68 48Z" fill="#3B82F6"/>
</svg> 